<?xml version="1.0" encoding="utf-8"?>
<!-- Generator: Adobe Illustrator 22.0.1, SVG Export Plug-In . SVG Version: 6.00 Build 0)  -->
<svg version="1.1" id="Layer_1" xmlns="http://www.w3.org/2000/svg" xmlns:xlink="http://www.w3.org/1999/xlink" x="0px" y="0px"
	 viewBox="0 0 48 48" style="enable-background:new 0 0 48 48;" xml:space="preserve">
<style type="text/css">
	.st0{fill:#07F3AB;}
</style>
<g id="lock_2_">
	<path class="st0" d="M33.3,21H32v-5c0-3.1-2.9-6-5.9-6h-5.1c-3.1,0-5.9,2.9-5.9,6v5h-1.3c-0.4,0-0.7,0.3-0.7,0.6v13.8
		c0,0.3,0.3,0.6,0.7,0.6h19.7c0.4,0,0.7-0.3,0.7-0.6V21.6C34,21.3,33.7,21,33.3,21z M19,16c0-1.4,0.6-2,2-2h5c1.4,0,2,0.6,2,2v5h-9
		V16z M24.5,28.4V31c0,0.3-0.2,0.5-0.5,0.5h-1c-0.3,0-0.5-0.2-0.5-0.5v-2.6c-0.6-0.3-1-1-1-1.7c0-1.1,0.9-2,2-2c1.1,0,2,0.9,2,2
		C25.5,27.4,25.1,28.1,24.5,28.4z"/>
</g>
</svg>
